<svg xmlns="http://www.w3.org/2000/svg" width="86" height="57" viewBox="0 0 86 57">
  <metadata><?xpacket begin="﻿" id="W5M0MpCehiHzreSzNTczkc9d"?>
<x:xmpmeta xmlns:x="adobe:ns:meta/" x:xmptk="Adobe XMP Core 5.6-c138 79.159824, 2016/09/14-01:09:01        ">
   <rdf:RDF xmlns:rdf="http://www.w3.org/1999/02/22-rdf-syntax-ns#">
      <rdf:Description rdf:about=""/>
   </rdf:RDF>
</x:xmpmeta>
                                                                                                    
                                                                                                    
                                                                                                    
                                                                                                    
                                                                                                    
                                                                                                    
                                                                                                    
                                                                                                    
                                                                                                    
                                                                                                    
                                                                                                    
                                                                                                    
                                                                                                    
                                                                                                    
                                                                                                    
                                                                                                    
                                                                                                    
                                                                                                    
                                                                                                    
                                                                                                    
                           
<?xpacket end="w"?></metadata>
<defs>
    <style>
      .cls-1 {
        fill: #363636;
        fill-rule: evenodd;
      }
    </style>
  </defs>
  <path id="Forma_1" data-name="Forma 1" class="cls-1" d="M1256.66,1575h-71.32a7.39,7.39,0,0,0-7.34,7.43v42.14a7.39,7.39,0,0,0,7.34,7.43h71.32a7.39,7.39,0,0,0,7.34-7.43v-42.14A7.39,7.39,0,0,0,1256.66,1575Zm4.55,49.57a4.586,4.586,0,0,1-4.55,4.61h-71.32a4.586,4.586,0,0,1-4.55-4.61v-42.14a4.586,4.586,0,0,1,4.55-4.61h71.32a4.586,4.586,0,0,1,4.55,4.61v42.14Zm-42.03-10.34a4.408,4.408,0,0,0-3.21-3.56l-7.49-1.94v-2.66a10.519,10.519,0,0,0,4.46-8.59v-4.52a8.89,8.89,0,0,0-8.82-8.93h-2.97a8.892,8.892,0,0,0-8.83,8.93v4.52a10.519,10.519,0,0,0,4.46,8.59v2.66l-7.48,1.94a4.419,4.419,0,0,0-3.22,3.56l-0.59,3.59a4.442,4.442,0,0,0,.98,3.59,4.334,4.334,0,0,0,3.33,1.56h25.67a4.334,4.334,0,0,0,3.33-1.56,4.478,4.478,0,0,0,.98-3.59Zm-2.51,5.35a1.521,1.521,0,0,1-1.2.57H1189.8a1.541,1.541,0,0,1-1.21-.57,1.58,1.58,0,0,1-.35-1.29l0.59-3.6a1.578,1.578,0,0,1,1.16-1.28l8.53-2.22a1.414,1.414,0,0,0,1.05-1.37v-4.53a1.419,1.419,0,0,0-.7-1.22,7.665,7.665,0,0,1-3.76-6.59v-4.52a6.082,6.082,0,0,1,6.04-6.11h2.97a6.082,6.082,0,0,1,6.04,6.11v4.52a7.674,7.674,0,0,1-3.77,6.59,1.41,1.41,0,0,0-.69,1.22v4.53a1.416,1.416,0,0,0,1.04,1.37l8.53,2.22a1.59,1.59,0,0,1,1.17,1.28l0.59,3.6A1.551,1.551,0,0,1,1216.67,1619.58Zm8.79-31.22h17.83a1.415,1.415,0,0,0,0-2.83h-17.83A1.415,1.415,0,0,0,1225.46,1588.36Zm29.72,3.19h-29.72a1.415,1.415,0,0,0,0,2.83h29.72A1.415,1.415,0,0,0,1255.18,1591.55Zm-5.95,15.05H1231.4a1.41,1.41,0,0,0,0,2.82h17.83A1.41,1.41,0,0,0,1249.23,1606.6Zm0,6.02H1231.4a1.41,1.41,0,0,0,0,2.82h17.83A1.41,1.41,0,0,0,1249.23,1612.62Zm4.46-13.54h-26.75a2.907,2.907,0,0,0-2.88,2.91v18.06a2.909,2.909,0,0,0,2.88,2.92h26.75a2.9,2.9,0,0,0,2.88-2.92v-18.06A2.9,2.9,0,0,0,1253.69,1599.08Zm0.09,20.97a0.092,0.092,0,0,1-.09.1h-26.75a0.092,0.092,0,0,1-.09-0.1v-18.06a0.09,0.09,0,0,1,.09-0.09h26.75a0.09,0.09,0,0,1,.09.09v18.06Z" transform="translate(-1178 -1575)"/>
</svg>
